G04 #@! TF.GenerationSoftware,KiCad,Pcbnew,9.0.7*
G04 #@! TF.CreationDate,2026-03-10T12:12:41-04:00*
G04 #@! TF.ProjectId,HDC1080Breakout,48444331-3038-4304-9272-65616b6f7574,rev?*
G04 #@! TF.SameCoordinates,Original*
G04 #@! TF.FileFunction,Copper,L1,Top*
G04 #@! TF.FilePolarity,Positive*
%FSLAX46Y46*%
G04 Gerber Fmt 4.6, Leading zero omitted, Abs format (unit mm)*
G04 Created by KiCad (PCBNEW 9.0.7) date 2026-03-10 12:12:41*
%MOMM*%
%LPD*%
G01*
G04 APERTURE LIST*
G04 Aperture macros list*
%AMRoundRect*
0 Rectangle with rounded corners*
0 $1 Rounding radius*
0 $2 $3 $4 $5 $6 $7 $8 $9 X,Y pos of 4 corners*
0 Add a 4 corners polygon primitive as box body*
4,1,4,$2,$3,$4,$5,$6,$7,$8,$9,$2,$3,0*
0 Add four circle primitives for the rounded corners*
1,1,$1+$1,$2,$3*
1,1,$1+$1,$4,$5*
1,1,$1+$1,$6,$7*
1,1,$1+$1,$8,$9*
0 Add four rect primitives between the rounded corners*
20,1,$1+$1,$2,$3,$4,$5,0*
20,1,$1+$1,$4,$5,$6,$7,0*
20,1,$1+$1,$6,$7,$8,$9,0*
20,1,$1+$1,$8,$9,$2,$3,0*%
G04 Aperture macros list end*
G04 #@! TA.AperFunction,SMDPad,CuDef*
%ADD10RoundRect,0.225000X0.250000X-0.225000X0.250000X0.225000X-0.250000X0.225000X-0.250000X-0.225000X0*%
G04 #@! TD*
G04 #@! TA.AperFunction,SMDPad,CuDef*
%ADD11RoundRect,0.100000X-0.100000X0.200000X-0.100000X-0.200000X0.100000X-0.200000X0.100000X0.200000X0*%
G04 #@! TD*
G04 #@! TA.AperFunction,SMDPad,CuDef*
%ADD12R,2.400000X1.500000*%
G04 #@! TD*
G04 #@! TA.AperFunction,ComponentPad*
%ADD13R,1.000000X1.000000*%
G04 #@! TD*
G04 #@! TA.AperFunction,ComponentPad*
%ADD14C,1.000000*%
G04 #@! TD*
G04 #@! TA.AperFunction,Conductor*
%ADD15C,0.250000*%
G04 #@! TD*
G04 APERTURE END LIST*
D10*
X2000000Y-5775000D03*
X2000000Y-4225000D03*
D11*
X5950000Y-3600000D03*
X5000000Y-3600000D03*
X4050000Y-3600000D03*
X4050000Y-6400000D03*
X5000000Y-6400000D03*
X5950000Y-6400000D03*
D12*
X5000000Y-5000000D03*
D13*
X8700000Y-6905000D03*
D14*
X8700000Y-5635000D03*
X8700000Y-4365000D03*
X8700000Y-3095000D03*
D15*
X5950000Y-3600000D02*
X7100000Y-3600000D01*
X7100000Y-3600000D02*
X7865000Y-4365000D01*
X7865000Y-4365000D02*
X8700000Y-4365000D01*
X5950000Y-6400000D02*
X7200000Y-6400000D01*
X7200000Y-6400000D02*
X7965000Y-5635000D01*
X7965000Y-5635000D02*
X8700000Y-5635000D01*
X8700000Y-6905000D02*
X8695000Y-6905000D01*
X8695000Y-6905000D02*
X8200000Y-7400000D01*
X8200000Y-7400000D02*
X4900000Y-7400000D01*
X8700000Y-3095000D02*
X8695000Y-3095000D01*
X8695000Y-3095000D02*
X8200000Y-2600000D01*
X8200000Y-2600000D02*
X5100000Y-2600000D01*
X2000000Y-5775000D02*
X2000000Y-6700000D01*
X2700000Y-7400000D02*
X4900000Y-7400000D01*
X5000000Y-7300000D02*
X4900000Y-7400000D01*
X5000000Y-6400000D02*
X5000000Y-7300000D01*
X2000000Y-6700000D02*
X2700000Y-7400000D01*
X2000000Y-4225000D02*
X2000000Y-3100000D01*
X5000000Y-3600000D02*
X5000000Y-2700000D01*
X2500000Y-2600000D02*
X5100000Y-2600000D01*
X5000000Y-2700000D02*
X5100000Y-2600000D01*
X2000000Y-3100000D02*
X2500000Y-2600000D01*
M02*
