%TF.GenerationSoftware,KiCad,Pcbnew,9.0.7*%
%TF.CreationDate,2026-03-10T12:16:45-04:00*%
%TF.ProjectId,HDC1080Breakout,48444331-3038-4304-9272-65616b6f7574,rev?*%
%TF.SameCoordinates,Original*%
%TF.FileFunction,Drillmap*%
%TF.FilePolarity,Positive*%
%FSLAX45Y45*%
G04 Gerber Fmt 4.5, Leading zero omitted, Abs format (unit mm)*
G04 Created by KiCad (PCBNEW 9.0.7) date 2026-03-10 12:16:45*
%MOMM*%
%LPD*%
G01*
G04 APERTURE LIST*
%ADD10C,0.050000*%
%ADD11C,0.200000*%
%ADD12C,0.120000*%
G04 APERTURE END LIST*
D10*
X1000000Y-1000000D02*
X1000000Y0D01*
X0Y0D02*
X0Y-1000000D01*
X0Y-1000000D02*
X1000000Y-1000000D01*
X0Y0D02*
X1000000Y0D01*
D11*
D12*
X40000Y-40000D02*
X160000Y-160000D01*
X160000Y-40000D02*
X40000Y-160000D01*
X40000Y-840000D02*
X160000Y-960000D01*
X160000Y-840000D02*
X40000Y-960000D01*
X840000Y-40000D02*
X960000Y-160000D01*
X960000Y-40000D02*
X840000Y-160000D01*
X840000Y-840000D02*
X960000Y-960000D01*
X960000Y-840000D02*
X840000Y-960000D01*
D11*
X258277Y-1313984D02*
X258277Y-1113984D01*
X258277Y-1113984D02*
X305896Y-1113984D01*
X305896Y-1113984D02*
X334467Y-1123508D01*
X334467Y-1123508D02*
X353515Y-1142555D01*
X353515Y-1142555D02*
X363039Y-1161603D01*
X363039Y-1161603D02*
X372562Y-1199698D01*
X372562Y-1199698D02*
X372562Y-1228270D01*
X372562Y-1228270D02*
X363039Y-1266365D01*
X363039Y-1266365D02*
X353515Y-1285412D01*
X353515Y-1285412D02*
X334467Y-1304460D01*
X334467Y-1304460D02*
X305896Y-1313984D01*
X305896Y-1313984D02*
X258277Y-1313984D01*
X458277Y-1313984D02*
X458277Y-1180650D01*
X458277Y-1218746D02*
X467801Y-1199698D01*
X467801Y-1199698D02*
X477324Y-1190174D01*
X477324Y-1190174D02*
X496372Y-1180650D01*
X496372Y-1180650D02*
X515420Y-1180650D01*
X582086Y-1313984D02*
X582086Y-1180650D01*
X582086Y-1113984D02*
X572563Y-1123508D01*
X572563Y-1123508D02*
X582086Y-1133031D01*
X582086Y-1133031D02*
X591610Y-1123508D01*
X591610Y-1123508D02*
X582086Y-1113984D01*
X582086Y-1113984D02*
X582086Y-1133031D01*
X705896Y-1313984D02*
X686848Y-1304460D01*
X686848Y-1304460D02*
X677324Y-1285412D01*
X677324Y-1285412D02*
X677324Y-1113984D01*
X810658Y-1313984D02*
X791610Y-1304460D01*
X791610Y-1304460D02*
X782086Y-1285412D01*
X782086Y-1285412D02*
X782086Y-1113984D01*
X1039229Y-1313984D02*
X1039229Y-1113984D01*
X1039229Y-1113984D02*
X1105896Y-1256841D01*
X1105896Y-1256841D02*
X1172563Y-1113984D01*
X1172563Y-1113984D02*
X1172563Y-1313984D01*
X1353515Y-1313984D02*
X1353515Y-1209222D01*
X1353515Y-1209222D02*
X1343991Y-1190174D01*
X1343991Y-1190174D02*
X1324944Y-1180650D01*
X1324944Y-1180650D02*
X1286848Y-1180650D01*
X1286848Y-1180650D02*
X1267801Y-1190174D01*
X1353515Y-1304460D02*
X1334467Y-1313984D01*
X1334467Y-1313984D02*
X1286848Y-1313984D01*
X1286848Y-1313984D02*
X1267801Y-1304460D01*
X1267801Y-1304460D02*
X1258277Y-1285412D01*
X1258277Y-1285412D02*
X1258277Y-1266365D01*
X1258277Y-1266365D02*
X1267801Y-1247317D01*
X1267801Y-1247317D02*
X1286848Y-1237793D01*
X1286848Y-1237793D02*
X1334467Y-1237793D01*
X1334467Y-1237793D02*
X1353515Y-1228270D01*
X1448753Y-1180650D02*
X1448753Y-1380650D01*
X1448753Y-1190174D02*
X1467801Y-1180650D01*
X1467801Y-1180650D02*
X1505896Y-1180650D01*
X1505896Y-1180650D02*
X1524943Y-1190174D01*
X1524943Y-1190174D02*
X1534467Y-1199698D01*
X1534467Y-1199698D02*
X1543991Y-1218746D01*
X1543991Y-1218746D02*
X1543991Y-1275889D01*
X1543991Y-1275889D02*
X1534467Y-1294936D01*
X1534467Y-1294936D02*
X1524943Y-1304460D01*
X1524943Y-1304460D02*
X1505896Y-1313984D01*
X1505896Y-1313984D02*
X1467801Y-1313984D01*
X1467801Y-1313984D02*
X1448753Y-1304460D01*
X1629705Y-1294936D02*
X1639229Y-1304460D01*
X1639229Y-1304460D02*
X1629705Y-1313984D01*
X1629705Y-1313984D02*
X1620182Y-1304460D01*
X1620182Y-1304460D02*
X1629705Y-1294936D01*
X1629705Y-1294936D02*
X1629705Y-1313984D01*
X1629705Y-1190174D02*
X1639229Y-1199698D01*
X1639229Y-1199698D02*
X1629705Y-1209222D01*
X1629705Y-1209222D02*
X1620182Y-1199698D01*
X1620182Y-1199698D02*
X1629705Y-1190174D01*
X1629705Y-1190174D02*
X1629705Y-1209222D01*
D12*
X-122500Y-1582500D02*
X-2500Y-1702500D01*
X-2500Y-1582500D02*
X-122500Y-1702500D01*
D11*
X363039Y-1733984D02*
X248753Y-1733984D01*
X305896Y-1733984D02*
X305896Y-1533984D01*
X305896Y-1533984D02*
X286848Y-1562555D01*
X286848Y-1562555D02*
X267801Y-1581603D01*
X267801Y-1581603D02*
X248753Y-1591127D01*
X448753Y-1714936D02*
X458277Y-1724460D01*
X458277Y-1724460D02*
X448753Y-1733984D01*
X448753Y-1733984D02*
X439229Y-1724460D01*
X439229Y-1724460D02*
X448753Y-1714936D01*
X448753Y-1714936D02*
X448753Y-1733984D01*
X534467Y-1553031D02*
X543991Y-1543508D01*
X543991Y-1543508D02*
X563039Y-1533984D01*
X563039Y-1533984D02*
X610658Y-1533984D01*
X610658Y-1533984D02*
X629705Y-1543508D01*
X629705Y-1543508D02*
X639229Y-1553031D01*
X639229Y-1553031D02*
X648753Y-1572079D01*
X648753Y-1572079D02*
X648753Y-1591127D01*
X648753Y-1591127D02*
X639229Y-1619698D01*
X639229Y-1619698D02*
X524944Y-1733984D01*
X524944Y-1733984D02*
X648753Y-1733984D01*
X772562Y-1533984D02*
X791610Y-1533984D01*
X791610Y-1533984D02*
X810658Y-1543508D01*
X810658Y-1543508D02*
X820182Y-1553031D01*
X820182Y-1553031D02*
X829705Y-1572079D01*
X829705Y-1572079D02*
X839229Y-1610174D01*
X839229Y-1610174D02*
X839229Y-1657793D01*
X839229Y-1657793D02*
X829705Y-1695888D01*
X829705Y-1695888D02*
X820182Y-1714936D01*
X820182Y-1714936D02*
X810658Y-1724460D01*
X810658Y-1724460D02*
X791610Y-1733984D01*
X791610Y-1733984D02*
X772562Y-1733984D01*
X772562Y-1733984D02*
X753515Y-1724460D01*
X753515Y-1724460D02*
X743991Y-1714936D01*
X743991Y-1714936D02*
X734467Y-1695888D01*
X734467Y-1695888D02*
X724943Y-1657793D01*
X724943Y-1657793D02*
X724943Y-1610174D01*
X724943Y-1610174D02*
X734467Y-1572079D01*
X734467Y-1572079D02*
X743991Y-1553031D01*
X743991Y-1553031D02*
X753515Y-1543508D01*
X753515Y-1543508D02*
X772562Y-1533984D01*
X963039Y-1533984D02*
X982086Y-1533984D01*
X982086Y-1533984D02*
X1001134Y-1543508D01*
X1001134Y-1543508D02*
X1010658Y-1553031D01*
X1010658Y-1553031D02*
X1020182Y-1572079D01*
X1020182Y-1572079D02*
X1029705Y-1610174D01*
X1029705Y-1610174D02*
X1029705Y-1657793D01*
X1029705Y-1657793D02*
X1020182Y-1695888D01*
X1020182Y-1695888D02*
X1010658Y-1714936D01*
X1010658Y-1714936D02*
X1001134Y-1724460D01*
X1001134Y-1724460D02*
X982086Y-1733984D01*
X982086Y-1733984D02*
X963039Y-1733984D01*
X963039Y-1733984D02*
X943991Y-1724460D01*
X943991Y-1724460D02*
X934467Y-1714936D01*
X934467Y-1714936D02*
X924943Y-1695888D01*
X924943Y-1695888D02*
X915420Y-1657793D01*
X915420Y-1657793D02*
X915420Y-1610174D01*
X915420Y-1610174D02*
X924943Y-1572079D01*
X924943Y-1572079D02*
X934467Y-1553031D01*
X934467Y-1553031D02*
X943991Y-1543508D01*
X943991Y-1543508D02*
X963039Y-1533984D01*
X1115420Y-1733984D02*
X1115420Y-1600650D01*
X1115420Y-1619698D02*
X1124944Y-1610174D01*
X1124944Y-1610174D02*
X1143991Y-1600650D01*
X1143991Y-1600650D02*
X1172563Y-1600650D01*
X1172563Y-1600650D02*
X1191610Y-1610174D01*
X1191610Y-1610174D02*
X1201134Y-1629222D01*
X1201134Y-1629222D02*
X1201134Y-1733984D01*
X1201134Y-1629222D02*
X1210658Y-1610174D01*
X1210658Y-1610174D02*
X1229705Y-1600650D01*
X1229705Y-1600650D02*
X1258277Y-1600650D01*
X1258277Y-1600650D02*
X1277325Y-1610174D01*
X1277325Y-1610174D02*
X1286848Y-1629222D01*
X1286848Y-1629222D02*
X1286848Y-1733984D01*
X1382086Y-1733984D02*
X1382086Y-1600650D01*
X1382086Y-1619698D02*
X1391610Y-1610174D01*
X1391610Y-1610174D02*
X1410658Y-1600650D01*
X1410658Y-1600650D02*
X1439229Y-1600650D01*
X1439229Y-1600650D02*
X1458277Y-1610174D01*
X1458277Y-1610174D02*
X1467801Y-1629222D01*
X1467801Y-1629222D02*
X1467801Y-1733984D01*
X1467801Y-1629222D02*
X1477324Y-1610174D01*
X1477324Y-1610174D02*
X1496372Y-1600650D01*
X1496372Y-1600650D02*
X1524943Y-1600650D01*
X1524943Y-1600650D02*
X1543991Y-1610174D01*
X1543991Y-1610174D02*
X1553515Y-1629222D01*
X1553515Y-1629222D02*
X1553515Y-1733984D01*
X1943991Y-1524460D02*
X1772563Y-1781603D01*
X2201134Y-1533984D02*
X2220182Y-1533984D01*
X2220182Y-1533984D02*
X2239229Y-1543508D01*
X2239229Y-1543508D02*
X2248753Y-1553031D01*
X2248753Y-1553031D02*
X2258277Y-1572079D01*
X2258277Y-1572079D02*
X2267801Y-1610174D01*
X2267801Y-1610174D02*
X2267801Y-1657793D01*
X2267801Y-1657793D02*
X2258277Y-1695888D01*
X2258277Y-1695888D02*
X2248753Y-1714936D01*
X2248753Y-1714936D02*
X2239229Y-1724460D01*
X2239229Y-1724460D02*
X2220182Y-1733984D01*
X2220182Y-1733984D02*
X2201134Y-1733984D01*
X2201134Y-1733984D02*
X2182087Y-1724460D01*
X2182087Y-1724460D02*
X2172563Y-1714936D01*
X2172563Y-1714936D02*
X2163039Y-1695888D01*
X2163039Y-1695888D02*
X2153515Y-1657793D01*
X2153515Y-1657793D02*
X2153515Y-1610174D01*
X2153515Y-1610174D02*
X2163039Y-1572079D01*
X2163039Y-1572079D02*
X2172563Y-1553031D01*
X2172563Y-1553031D02*
X2182087Y-1543508D01*
X2182087Y-1543508D02*
X2201134Y-1533984D01*
X2353515Y-1714936D02*
X2363039Y-1724460D01*
X2363039Y-1724460D02*
X2353515Y-1733984D01*
X2353515Y-1733984D02*
X2343991Y-1724460D01*
X2343991Y-1724460D02*
X2353515Y-1714936D01*
X2353515Y-1714936D02*
X2353515Y-1733984D01*
X2486848Y-1533984D02*
X2505896Y-1533984D01*
X2505896Y-1533984D02*
X2524944Y-1543508D01*
X2524944Y-1543508D02*
X2534468Y-1553031D01*
X2534468Y-1553031D02*
X2543991Y-1572079D01*
X2543991Y-1572079D02*
X2553515Y-1610174D01*
X2553515Y-1610174D02*
X2553515Y-1657793D01*
X2553515Y-1657793D02*
X2543991Y-1695888D01*
X2543991Y-1695888D02*
X2534468Y-1714936D01*
X2534468Y-1714936D02*
X2524944Y-1724460D01*
X2524944Y-1724460D02*
X2505896Y-1733984D01*
X2505896Y-1733984D02*
X2486848Y-1733984D01*
X2486848Y-1733984D02*
X2467801Y-1724460D01*
X2467801Y-1724460D02*
X2458277Y-1714936D01*
X2458277Y-1714936D02*
X2448753Y-1695888D01*
X2448753Y-1695888D02*
X2439229Y-1657793D01*
X2439229Y-1657793D02*
X2439229Y-1610174D01*
X2439229Y-1610174D02*
X2448753Y-1572079D01*
X2448753Y-1572079D02*
X2458277Y-1553031D01*
X2458277Y-1553031D02*
X2467801Y-1543508D01*
X2467801Y-1543508D02*
X2486848Y-1533984D01*
X2724944Y-1600650D02*
X2724944Y-1733984D01*
X2677325Y-1524460D02*
X2629706Y-1667317D01*
X2629706Y-1667317D02*
X2753515Y-1667317D01*
X2810658Y-1533984D02*
X2943991Y-1533984D01*
X2943991Y-1533984D02*
X2858277Y-1733984D01*
X3010658Y-1553031D02*
X3020182Y-1543508D01*
X3020182Y-1543508D02*
X3039229Y-1533984D01*
X3039229Y-1533984D02*
X3086848Y-1533984D01*
X3086848Y-1533984D02*
X3105896Y-1543508D01*
X3105896Y-1543508D02*
X3115420Y-1553031D01*
X3115420Y-1553031D02*
X3124944Y-1572079D01*
X3124944Y-1572079D02*
X3124944Y-1591127D01*
X3124944Y-1591127D02*
X3115420Y-1619698D01*
X3115420Y-1619698D02*
X3001134Y-1733984D01*
X3001134Y-1733984D02*
X3124944Y-1733984D01*
X3201134Y-1533984D02*
X3201134Y-1572079D01*
X3277325Y-1533984D02*
X3277325Y-1572079D01*
X3572563Y-1810174D02*
X3563039Y-1800650D01*
X3563039Y-1800650D02*
X3543991Y-1772079D01*
X3543991Y-1772079D02*
X3534468Y-1753031D01*
X3534468Y-1753031D02*
X3524944Y-1724460D01*
X3524944Y-1724460D02*
X3515420Y-1676841D01*
X3515420Y-1676841D02*
X3515420Y-1638746D01*
X3515420Y-1638746D02*
X3524944Y-1591127D01*
X3524944Y-1591127D02*
X3534468Y-1562555D01*
X3534468Y-1562555D02*
X3543991Y-1543508D01*
X3543991Y-1543508D02*
X3563039Y-1514936D01*
X3563039Y-1514936D02*
X3572563Y-1505412D01*
X3734468Y-1600650D02*
X3734468Y-1733984D01*
X3686848Y-1524460D02*
X3639229Y-1667317D01*
X3639229Y-1667317D02*
X3763039Y-1667317D01*
X3991610Y-1733984D02*
X3991610Y-1533984D01*
X4077325Y-1733984D02*
X4077325Y-1629222D01*
X4077325Y-1629222D02*
X4067801Y-1610174D01*
X4067801Y-1610174D02*
X4048753Y-1600650D01*
X4048753Y-1600650D02*
X4020182Y-1600650D01*
X4020182Y-1600650D02*
X4001134Y-1610174D01*
X4001134Y-1610174D02*
X3991610Y-1619698D01*
X4201134Y-1733984D02*
X4182087Y-1724460D01*
X4182087Y-1724460D02*
X4172563Y-1714936D01*
X4172563Y-1714936D02*
X4163039Y-1695888D01*
X4163039Y-1695888D02*
X4163039Y-1638746D01*
X4163039Y-1638746D02*
X4172563Y-1619698D01*
X4172563Y-1619698D02*
X4182087Y-1610174D01*
X4182087Y-1610174D02*
X4201134Y-1600650D01*
X4201134Y-1600650D02*
X4229706Y-1600650D01*
X4229706Y-1600650D02*
X4248753Y-1610174D01*
X4248753Y-1610174D02*
X4258277Y-1619698D01*
X4258277Y-1619698D02*
X4267801Y-1638746D01*
X4267801Y-1638746D02*
X4267801Y-1695888D01*
X4267801Y-1695888D02*
X4258277Y-1714936D01*
X4258277Y-1714936D02*
X4248753Y-1724460D01*
X4248753Y-1724460D02*
X4229706Y-1733984D01*
X4229706Y-1733984D02*
X4201134Y-1733984D01*
X4382087Y-1733984D02*
X4363039Y-1724460D01*
X4363039Y-1724460D02*
X4353515Y-1705412D01*
X4353515Y-1705412D02*
X4353515Y-1533984D01*
X4534468Y-1724460D02*
X4515420Y-1733984D01*
X4515420Y-1733984D02*
X4477325Y-1733984D01*
X4477325Y-1733984D02*
X4458277Y-1724460D01*
X4458277Y-1724460D02*
X4448753Y-1705412D01*
X4448753Y-1705412D02*
X4448753Y-1629222D01*
X4448753Y-1629222D02*
X4458277Y-1610174D01*
X4458277Y-1610174D02*
X4477325Y-1600650D01*
X4477325Y-1600650D02*
X4515420Y-1600650D01*
X4515420Y-1600650D02*
X4534468Y-1610174D01*
X4534468Y-1610174D02*
X4543992Y-1629222D01*
X4543992Y-1629222D02*
X4543992Y-1648269D01*
X4543992Y-1648269D02*
X4448753Y-1667317D01*
X4620182Y-1724460D02*
X4639230Y-1733984D01*
X4639230Y-1733984D02*
X4677325Y-1733984D01*
X4677325Y-1733984D02*
X4696373Y-1724460D01*
X4696373Y-1724460D02*
X4705896Y-1705412D01*
X4705896Y-1705412D02*
X4705896Y-1695888D01*
X4705896Y-1695888D02*
X4696373Y-1676841D01*
X4696373Y-1676841D02*
X4677325Y-1667317D01*
X4677325Y-1667317D02*
X4648753Y-1667317D01*
X4648753Y-1667317D02*
X4629706Y-1657793D01*
X4629706Y-1657793D02*
X4620182Y-1638746D01*
X4620182Y-1638746D02*
X4620182Y-1629222D01*
X4620182Y-1629222D02*
X4629706Y-1610174D01*
X4629706Y-1610174D02*
X4648753Y-1600650D01*
X4648753Y-1600650D02*
X4677325Y-1600650D01*
X4677325Y-1600650D02*
X4696373Y-1610174D01*
X4772563Y-1810174D02*
X4782087Y-1800650D01*
X4782087Y-1800650D02*
X4801134Y-1772079D01*
X4801134Y-1772079D02*
X4810658Y-1753031D01*
X4810658Y-1753031D02*
X4820182Y-1724460D01*
X4820182Y-1724460D02*
X4829706Y-1676841D01*
X4829706Y-1676841D02*
X4829706Y-1638746D01*
X4829706Y-1638746D02*
X4820182Y-1591127D01*
X4820182Y-1591127D02*
X4810658Y-1562555D01*
X4810658Y-1562555D02*
X4801134Y-1543508D01*
X4801134Y-1543508D02*
X4782087Y-1514936D01*
X4782087Y-1514936D02*
X4772563Y-1505412D01*
X5134468Y-1810174D02*
X5124944Y-1800650D01*
X5124944Y-1800650D02*
X5105896Y-1772079D01*
X5105896Y-1772079D02*
X5096373Y-1753031D01*
X5096373Y-1753031D02*
X5086849Y-1724460D01*
X5086849Y-1724460D02*
X5077325Y-1676841D01*
X5077325Y-1676841D02*
X5077325Y-1638746D01*
X5077325Y-1638746D02*
X5086849Y-1591127D01*
X5086849Y-1591127D02*
X5096373Y-1562555D01*
X5096373Y-1562555D02*
X5105896Y-1543508D01*
X5105896Y-1543508D02*
X5124944Y-1514936D01*
X5124944Y-1514936D02*
X5134468Y-1505412D01*
X5210658Y-1600650D02*
X5210658Y-1733984D01*
X5210658Y-1619698D02*
X5220182Y-1610174D01*
X5220182Y-1610174D02*
X5239230Y-1600650D01*
X5239230Y-1600650D02*
X5267801Y-1600650D01*
X5267801Y-1600650D02*
X5286849Y-1610174D01*
X5286849Y-1610174D02*
X5296373Y-1629222D01*
X5296373Y-1629222D02*
X5296373Y-1733984D01*
X5420182Y-1733984D02*
X5401134Y-1724460D01*
X5401134Y-1724460D02*
X5391611Y-1714936D01*
X5391611Y-1714936D02*
X5382087Y-1695888D01*
X5382087Y-1695888D02*
X5382087Y-1638746D01*
X5382087Y-1638746D02*
X5391611Y-1619698D01*
X5391611Y-1619698D02*
X5401134Y-1610174D01*
X5401134Y-1610174D02*
X5420182Y-1600650D01*
X5420182Y-1600650D02*
X5448754Y-1600650D01*
X5448754Y-1600650D02*
X5467801Y-1610174D01*
X5467801Y-1610174D02*
X5477325Y-1619698D01*
X5477325Y-1619698D02*
X5486849Y-1638746D01*
X5486849Y-1638746D02*
X5486849Y-1695888D01*
X5486849Y-1695888D02*
X5477325Y-1714936D01*
X5477325Y-1714936D02*
X5467801Y-1724460D01*
X5467801Y-1724460D02*
X5448754Y-1733984D01*
X5448754Y-1733984D02*
X5420182Y-1733984D01*
X5543992Y-1600650D02*
X5620182Y-1600650D01*
X5572563Y-1533984D02*
X5572563Y-1705412D01*
X5572563Y-1705412D02*
X5582087Y-1724460D01*
X5582087Y-1724460D02*
X5601134Y-1733984D01*
X5601134Y-1733984D02*
X5620182Y-1733984D01*
X5839230Y-1600650D02*
X5839230Y-1800650D01*
X5839230Y-1610174D02*
X5858277Y-1600650D01*
X5858277Y-1600650D02*
X5896373Y-1600650D01*
X5896373Y-1600650D02*
X5915420Y-1610174D01*
X5915420Y-1610174D02*
X5924944Y-1619698D01*
X5924944Y-1619698D02*
X5934468Y-1638746D01*
X5934468Y-1638746D02*
X5934468Y-1695888D01*
X5934468Y-1695888D02*
X5924944Y-1714936D01*
X5924944Y-1714936D02*
X5915420Y-1724460D01*
X5915420Y-1724460D02*
X5896373Y-1733984D01*
X5896373Y-1733984D02*
X5858277Y-1733984D01*
X5858277Y-1733984D02*
X5839230Y-1724460D01*
X6048753Y-1733984D02*
X6029706Y-1724460D01*
X6029706Y-1724460D02*
X6020182Y-1705412D01*
X6020182Y-1705412D02*
X6020182Y-1533984D01*
X6210658Y-1733984D02*
X6210658Y-1629222D01*
X6210658Y-1629222D02*
X6201134Y-1610174D01*
X6201134Y-1610174D02*
X6182087Y-1600650D01*
X6182087Y-1600650D02*
X6143992Y-1600650D01*
X6143992Y-1600650D02*
X6124944Y-1610174D01*
X6210658Y-1724460D02*
X6191611Y-1733984D01*
X6191611Y-1733984D02*
X6143992Y-1733984D01*
X6143992Y-1733984D02*
X6124944Y-1724460D01*
X6124944Y-1724460D02*
X6115420Y-1705412D01*
X6115420Y-1705412D02*
X6115420Y-1686365D01*
X6115420Y-1686365D02*
X6124944Y-1667317D01*
X6124944Y-1667317D02*
X6143992Y-1657793D01*
X6143992Y-1657793D02*
X6191611Y-1657793D01*
X6191611Y-1657793D02*
X6210658Y-1648269D01*
X6277325Y-1600650D02*
X6353515Y-1600650D01*
X6305896Y-1533984D02*
X6305896Y-1705412D01*
X6305896Y-1705412D02*
X6315420Y-1724460D01*
X6315420Y-1724460D02*
X6334468Y-1733984D01*
X6334468Y-1733984D02*
X6353515Y-1733984D01*
X6496373Y-1724460D02*
X6477325Y-1733984D01*
X6477325Y-1733984D02*
X6439230Y-1733984D01*
X6439230Y-1733984D02*
X6420182Y-1724460D01*
X6420182Y-1724460D02*
X6410658Y-1705412D01*
X6410658Y-1705412D02*
X6410658Y-1629222D01*
X6410658Y-1629222D02*
X6420182Y-1610174D01*
X6420182Y-1610174D02*
X6439230Y-1600650D01*
X6439230Y-1600650D02*
X6477325Y-1600650D01*
X6477325Y-1600650D02*
X6496373Y-1610174D01*
X6496373Y-1610174D02*
X6505896Y-1629222D01*
X6505896Y-1629222D02*
X6505896Y-1648269D01*
X6505896Y-1648269D02*
X6410658Y-1667317D01*
X6677325Y-1733984D02*
X6677325Y-1533984D01*
X6677325Y-1724460D02*
X6658277Y-1733984D01*
X6658277Y-1733984D02*
X6620182Y-1733984D01*
X6620182Y-1733984D02*
X6601134Y-1724460D01*
X6601134Y-1724460D02*
X6591611Y-1714936D01*
X6591611Y-1714936D02*
X6582087Y-1695888D01*
X6582087Y-1695888D02*
X6582087Y-1638746D01*
X6582087Y-1638746D02*
X6591611Y-1619698D01*
X6591611Y-1619698D02*
X6601134Y-1610174D01*
X6601134Y-1610174D02*
X6620182Y-1600650D01*
X6620182Y-1600650D02*
X6658277Y-1600650D01*
X6658277Y-1600650D02*
X6677325Y-1610174D01*
X6753515Y-1810174D02*
X6763039Y-1800650D01*
X6763039Y-1800650D02*
X6782087Y-1772079D01*
X6782087Y-1772079D02*
X6791611Y-1753031D01*
X6791611Y-1753031D02*
X6801134Y-1724460D01*
X6801134Y-1724460D02*
X6810658Y-1676841D01*
X6810658Y-1676841D02*
X6810658Y-1638746D01*
X6810658Y-1638746D02*
X6801134Y-1591127D01*
X6801134Y-1591127D02*
X6791611Y-1562555D01*
X6791611Y-1562555D02*
X6782087Y-1543508D01*
X6782087Y-1543508D02*
X6763039Y-1514936D01*
X6763039Y-1514936D02*
X6753515Y-1505412D01*
M02*
